<?xml version="1.0" encoding="iso-8859-1"?>
<!-- Generator: Adobe Illustrator 19.0.0, SVG Export Plug-In . SVG Version: 6.00 Build 0)  -->
<svg version="1.1" id="Layer_1" xmlns="http://www.w3.org/2000/svg" xmlns:xlink="http://www.w3.org/1999/xlink" x="0px" y="0px"
	 viewBox="0 0 512 512" style="enable-background:new 0 0 512 512;" xml:space="preserve">
<g transform="translate(1 1)">
	<g>
		<g>
			<path d="M417.133-1H92.867c-14.507,0-25.6,11.093-25.6,25.6v460.8c0,14.507,11.093,25.6,25.6,25.6h324.267
				c14.507,0,25.6-11.093,25.6-25.6V24.6C442.733,10.093,431.64-1,417.133-1z M425.667,485.4c0,5.12-3.413,8.533-8.533,8.533H92.867
				c-5.12,0-8.533-3.413-8.533-8.533V24.6c0-5.12,3.413-8.533,8.533-8.533h324.267c5.12,0,8.533,3.413,8.533,8.533V485.4z"/>
			<path d="M342.893,267.8c-10.24-5.973-20.48-9.387-30.72-10.24c5.12-11.093,5.973-23.893,4.267-35.84
				c-4.267-25.6-23.893-46.08-49.493-51.2c-18.773-4.267-38.4,0.853-52.907,12.8C199.533,195.267,191,213.187,191,231.96
				c0,8.533,1.707,17.067,5.12,24.747c-10.24,0.853-20.48,4.267-29.867,10.24c-18.773,11.947-30.72,29.867-31.573,49.493
				c-0.853,17.067,5.12,33.28,17.067,46.08c11.947,12.8,29.867,20.48,47.787,20.48c6.827,0,13.653-0.853,19.627-3.413
				c-1.707,15.36-5.12,28.16-6.827,32.427c-0.853,3.413,0,6.827,1.707,9.387c2.56,2.56,5.12,4.267,8.533,4.267h64
				c3.413,0,6.827-1.707,8.533-3.413c1.707-2.56,2.56-5.973,1.707-9.387c-1.707-5.12-5.12-17.92-6.827-32.427
				c5.973,2.56,12.8,3.413,19.627,3.413c17.92,0,34.987-6.827,47.787-20.48c11.947-12.8,17.92-29.013,17.067-46.08
				C372.76,297.667,361.667,279.747,342.893,267.8z M345.453,350.573c-9.387,9.387-22.187,15.36-35.84,15.36
				c-8.533,0-17.067-2.56-23.893-7.68l-13.653-9.387v17.067c0,16.213,3.413,32.427,5.973,42.667h-46.08
				c2.56-10.24,5.973-26.453,5.973-42.667v-17.067l-12.8,9.387c-6.827,5.12-15.36,7.68-23.893,7.68
				c-13.653,0-26.453-5.12-35.84-15.36c-8.533-9.387-12.8-21.333-11.947-33.28c0.853-13.653,10.24-27.307,23.893-35.84
				c11.093-6.827,23.04-8.533,34.987-5.973l25.6,5.973l-17.067-19.627c-6.827-8.533-11.093-18.773-11.093-29.867
				c0-14.507,6.827-27.307,17.067-35.84c11.093-8.533,24.747-11.947,38.4-9.387c17.92,4.267,32.427,18.773,35.84,37.547
				c2.56,13.653-1.707,27.307-10.24,37.547l-17.067,19.627l25.6-5.973c12.8-3.413,24.747-1.707,35.84,5.973
				c13.653,9.387,22.187,22.187,23.04,35.84C358.253,329.24,353.987,341.187,345.453,350.573z"/>
			<path d="M152.6,135.533h-8.533c-5.12,0-8.533,3.413-8.533,8.533c0,5.12,3.413,8.533,8.533,8.533H178.2
				c5.12,0,8.533-3.413,8.533-8.533c0-5.12-3.413-8.533-8.533-8.533h-8.533v-17.067h8.533c5.12,0,8.533-3.413,8.533-8.533
				s-3.413-8.533-8.533-8.533h-8.533V41.667c0-5.12-3.413-8.533-8.533-8.533c-3.665,0-6.447,1.755-7.737,4.627l-49.159,65.546
				c-1.793,1.499-2.837,3.801-2.837,6.627c0,5.12,3.413,8.533,8.533,8.533H152.6V135.533z M127,101.4l25.6-34.133V101.4H127z"/>
		</g>
	</g>
</g>
<g>
</g>
<g>
</g>
<g>
</g>
<g>
</g>
<g>
</g>
<g>
</g>
<g>
</g>
<g>
</g>
<g>
</g>
<g>
</g>
<g>
</g>
<g>
</g>
<g>
</g>
<g>
</g>
<g>
</g>
</svg>
